<mxfile host="app.diagrams.net" agent="Mozilla/5.0 (Macintosh; Intel Mac OS X 10_15_7) AppleWebKit/537.36 (KHTML, like Gecko) Chrome/131.0.0.0 Safari/537.36" version="26.0.4">
  <diagram name="Page-1" id="Jnv4plvhcBSVe5o-Ns1L">
    <mxGraphModel dx="984" dy="632" grid="1" gridSize="10" guides="1" tooltips="1" connect="1" arrows="1" fold="1" page="1" pageScale="1" pageWidth="827" pageHeight="1169" math="0" shadow="0">
      <root>
        <mxCell id="0" />
        <mxCell id="1" parent="0" />
        <mxCell id="idnd7KHXqdpk17hp0-3k-19" style="edgeStyle=orthogonalEdgeStyle;rounded=0;orthogonalLoop=1;jettySize=auto;html=1;exitX=1;exitY=0.5;exitDx=0;exitDy=0;entryX=0;entryY=0.5;entryDx=0;entryDy=0;" edge="1" parent="1" source="idnd7KHXqdpk17hp0-3k-1" target="idnd7KHXqdpk17hp0-3k-2">
          <mxGeometry relative="1" as="geometry" />
        </mxCell>
        <mxCell id="idnd7KHXqdpk17hp0-3k-1" value="Proposal" style="rounded=0;whiteSpace=wrap;html=1;" vertex="1" parent="1">
          <mxGeometry x="40" y="40" width="120" height="60" as="geometry" />
        </mxCell>
        <mxCell id="idnd7KHXqdpk17hp0-3k-20" style="edgeStyle=orthogonalEdgeStyle;rounded=0;orthogonalLoop=1;jettySize=auto;html=1;exitX=1;exitY=0.5;exitDx=0;exitDy=0;entryX=0;entryY=0.5;entryDx=0;entryDy=0;" edge="1" parent="1" source="idnd7KHXqdpk17hp0-3k-2" target="idnd7KHXqdpk17hp0-3k-3">
          <mxGeometry relative="1" as="geometry" />
        </mxCell>
        <mxCell id="idnd7KHXqdpk17hp0-3k-2" value="Spam detection" style="rounded=1;whiteSpace=wrap;html=1;" vertex="1" parent="1">
          <mxGeometry x="200" y="40" width="120" height="60" as="geometry" />
        </mxCell>
        <mxCell id="idnd7KHXqdpk17hp0-3k-21" style="edgeStyle=orthogonalEdgeStyle;rounded=0;orthogonalLoop=1;jettySize=auto;html=1;exitX=1;exitY=0.5;exitDx=0;exitDy=0;entryX=0;entryY=0.5;entryDx=0;entryDy=0;" edge="1" parent="1" source="idnd7KHXqdpk17hp0-3k-3" target="idnd7KHXqdpk17hp0-3k-4">
          <mxGeometry relative="1" as="geometry" />
        </mxCell>
        <mxCell id="idnd7KHXqdpk17hp0-3k-3" value="Admin Review" style="rounded=1;whiteSpace=wrap;html=1;" vertex="1" parent="1">
          <mxGeometry x="360" y="40" width="120" height="60" as="geometry" />
        </mxCell>
        <mxCell id="idnd7KHXqdpk17hp0-3k-22" style="edgeStyle=orthogonalEdgeStyle;rounded=0;orthogonalLoop=1;jettySize=auto;html=1;exitX=0.5;exitY=1;exitDx=0;exitDy=0;entryX=0.5;entryY=0;entryDx=0;entryDy=0;" edge="1" parent="1" source="idnd7KHXqdpk17hp0-3k-4" target="idnd7KHXqdpk17hp0-3k-5">
          <mxGeometry relative="1" as="geometry" />
        </mxCell>
        <mxCell id="idnd7KHXqdpk17hp0-3k-4" value="Public listing" style="rounded=1;whiteSpace=wrap;html=1;" vertex="1" parent="1">
          <mxGeometry x="520" y="40" width="120" height="60" as="geometry" />
        </mxCell>
        <mxCell id="idnd7KHXqdpk17hp0-3k-5" value="Donation start" style="rounded=1;whiteSpace=wrap;html=1;" vertex="1" parent="1">
          <mxGeometry x="40" y="160" width="120" height="60" as="geometry" />
        </mxCell>
        <mxCell id="idnd7KHXqdpk17hp0-3k-6" value="Vendor" style="rounded=0;whiteSpace=wrap;html=1;" vertex="1" parent="1">
          <mxGeometry x="40" y="280" width="760" height="60" as="geometry" />
        </mxCell>
        <mxCell id="idnd7KHXqdpk17hp0-3k-13" value="" style="edgeStyle=orthogonalEdgeStyle;rounded=0;orthogonalLoop=1;jettySize=auto;html=1;" edge="1" parent="1" source="idnd7KHXqdpk17hp0-3k-7" target="idnd7KHXqdpk17hp0-3k-8">
          <mxGeometry relative="1" as="geometry" />
        </mxCell>
        <mxCell id="idnd7KHXqdpk17hp0-3k-7" value="logged in" style="rounded=1;whiteSpace=wrap;html=1;" vertex="1" parent="1">
          <mxGeometry x="40" y="400" width="120" height="60" as="geometry" />
        </mxCell>
        <mxCell id="idnd7KHXqdpk17hp0-3k-14" value="" style="edgeStyle=orthogonalEdgeStyle;rounded=0;orthogonalLoop=1;jettySize=auto;html=1;" edge="1" parent="1" source="idnd7KHXqdpk17hp0-3k-8" target="idnd7KHXqdpk17hp0-3k-9">
          <mxGeometry relative="1" as="geometry" />
        </mxCell>
        <mxCell id="idnd7KHXqdpk17hp0-3k-8" value="bid on proposal" style="rounded=1;whiteSpace=wrap;html=1;" vertex="1" parent="1">
          <mxGeometry x="200" y="400" width="120" height="60" as="geometry" />
        </mxCell>
        <mxCell id="idnd7KHXqdpk17hp0-3k-15" value="" style="edgeStyle=orthogonalEdgeStyle;rounded=0;orthogonalLoop=1;jettySize=auto;html=1;" edge="1" parent="1" source="idnd7KHXqdpk17hp0-3k-9" target="idnd7KHXqdpk17hp0-3k-10">
          <mxGeometry relative="1" as="geometry" />
        </mxCell>
        <mxCell id="idnd7KHXqdpk17hp0-3k-9" value="bid selection" style="rounded=1;whiteSpace=wrap;html=1;" vertex="1" parent="1">
          <mxGeometry x="360" y="400" width="120" height="60" as="geometry" />
        </mxCell>
        <mxCell id="idnd7KHXqdpk17hp0-3k-17" style="edgeStyle=orthogonalEdgeStyle;rounded=0;orthogonalLoop=1;jettySize=auto;html=1;exitX=0.5;exitY=1;exitDx=0;exitDy=0;entryX=0.442;entryY=-0.017;entryDx=0;entryDy=0;entryPerimeter=0;" edge="1" parent="1" source="idnd7KHXqdpk17hp0-3k-10" target="idnd7KHXqdpk17hp0-3k-11">
          <mxGeometry relative="1" as="geometry">
            <mxPoint x="580" y="510" as="targetPoint" />
          </mxGeometry>
        </mxCell>
        <mxCell id="idnd7KHXqdpk17hp0-3k-10" value="Accept" style="rounded=1;whiteSpace=wrap;html=1;" vertex="1" parent="1">
          <mxGeometry x="520" y="400" width="120" height="60" as="geometry" />
        </mxCell>
        <mxCell id="idnd7KHXqdpk17hp0-3k-18" style="edgeStyle=orthogonalEdgeStyle;rounded=0;orthogonalLoop=1;jettySize=auto;html=1;exitX=1;exitY=0.5;exitDx=0;exitDy=0;entryX=0;entryY=0.5;entryDx=0;entryDy=0;" edge="1" parent="1" source="idnd7KHXqdpk17hp0-3k-11" target="idnd7KHXqdpk17hp0-3k-12">
          <mxGeometry relative="1" as="geometry" />
        </mxCell>
        <mxCell id="idnd7KHXqdpk17hp0-3k-11" value="complete milestone" style="rounded=1;whiteSpace=wrap;html=1;" vertex="1" parent="1">
          <mxGeometry x="40" y="525" width="120" height="60" as="geometry" />
        </mxCell>
        <mxCell id="idnd7KHXqdpk17hp0-3k-12" value="release budget" style="rounded=1;whiteSpace=wrap;html=1;" vertex="1" parent="1">
          <mxGeometry x="200" y="525" width="120" height="60" as="geometry" />
        </mxCell>
      </root>
    </mxGraphModel>
  </diagram>
</mxfile>
